<svg width="17.276367" height="16.720337" viewBox="0 0 17.2764 16.7203" fill="none" xmlns="http://www.w3.org/2000/svg" xmlns:xlink="http://www.w3.org/1999/xlink">
	<desc>
			Created with Pixso.
	</desc>
	<defs/>
	<path id="Star 1" d="M6.94 3.53C7.58 1.93 7.9 1.13 8.43 1.02C8.56 0.99 8.7 0.99 8.84 1.02C9.36 1.13 9.68 1.93 10.33 3.53C10.69 4.44 10.87 4.89 11.22 5.2C11.31 5.29 11.42 5.37 11.53 5.44C11.92 5.67 12.41 5.72 13.4 5.81C15.07 5.96 15.9 6.03 16.16 6.51C16.21 6.6 16.25 6.71 16.26 6.82C16.35 7.35 15.73 7.91 14.51 9.03L14.17 9.34C13.59 9.86 13.31 10.12 13.14 10.45C13.04 10.64 12.97 10.85 12.94 11.07C12.89 11.43 12.98 11.81 13.14 12.57L13.2 12.84C13.5 14.19 13.65 14.87 13.47 15.21C13.3 15.51 12.99 15.7 12.64 15.71C12.26 15.73 11.72 15.29 10.64 14.42C9.93 13.84 9.58 13.55 9.18 13.43C8.82 13.33 8.44 13.33 8.08 13.43C7.69 13.55 7.33 13.84 6.62 14.42C5.54 15.29 5.01 15.73 4.62 15.71C4.28 15.7 3.97 15.51 3.8 15.21C3.61 14.87 3.76 14.19 4.06 12.84L4.12 12.57C4.29 11.81 4.38 11.43 4.32 11.07C4.29 10.85 4.22 10.64 4.13 10.45C3.96 10.12 3.67 9.86 3.1 9.34L2.76 9.03C1.53 7.91 0.92 7.35 1 6.82C1.02 6.71 1.06 6.6 1.11 6.51C1.36 6.03 2.2 5.96 3.87 5.81C4.85 5.72 5.35 5.67 5.74 5.44C5.85 5.37 5.96 5.29 6.05 5.2C6.39 4.89 6.58 4.44 6.94 3.53Z" fill="#02AF5E" fill-opacity="1.000000" fill-rule="evenodd"/>
	<path id="Star 1" d="M14.17 9.34C13.59 9.86 13.31 10.12 13.14 10.45C13.04 10.64 12.97 10.85 12.94 11.07C12.89 11.43 12.98 11.81 13.14 12.57L13.2 12.84C13.5 14.19 13.65 14.87 13.47 15.21C13.3 15.51 12.99 15.7 12.64 15.71C12.26 15.73 11.72 15.29 10.64 14.42C9.93 13.84 9.58 13.55 9.18 13.43C8.82 13.33 8.44 13.33 8.08 13.43C7.69 13.55 7.33 13.84 6.62 14.42C5.54 15.29 5.01 15.73 4.62 15.71C4.28 15.7 3.97 15.51 3.8 15.21C3.61 14.87 3.76 14.19 4.06 12.84L4.12 12.57C4.29 11.81 4.38 11.43 4.32 11.07C4.29 10.85 4.22 10.64 4.13 10.45C3.96 10.12 3.67 9.86 3.1 9.34L2.76 9.03C1.53 7.91 0.92 7.35 1 6.82C1.02 6.71 1.06 6.6 1.11 6.51C1.36 6.03 2.2 5.96 3.87 5.81C4.85 5.72 5.35 5.67 5.74 5.44C5.85 5.37 5.96 5.29 6.05 5.2C6.39 4.89 6.58 4.44 6.94 3.53C7.58 1.93 7.9 1.13 8.43 1.02C8.56 0.99 8.7 0.99 8.84 1.02C9.36 1.13 9.68 1.93 10.33 3.53C10.69 4.44 10.87 4.89 11.22 5.2C11.31 5.29 11.42 5.37 11.53 5.44C11.92 5.67 12.41 5.72 13.4 5.81C15.07 5.96 15.9 6.03 16.16 6.51C16.21 6.6 16.25 6.71 16.26 6.82C16.35 7.35 15.73 7.91 14.51 9.03L14.17 9.34Z" stroke="#02AF5E" stroke-opacity="1.000000" stroke-width="2.000000"/>
</svg>
